<?xml version="1.0" encoding="utf-8"?>
<!-- Generator: Adobe Illustrator 25.3.1, SVG Export Plug-In . SVG Version: 6.00 Build 0)  -->
<svg version="1.1" xmlns="http://www.w3.org/2000/svg" xmlns:xlink="http://www.w3.org/1999/xlink" x="0px" y="0px"
	 viewBox="0 0 3018.25 1080" style="enable-background:new 0 0 3018.25 1080;" xml:space="preserve">
<style type="text/css">
	.st0{fill-rule:evenodd;clip-rule:evenodd;fill:#080810;}
	.st1{fill-rule:evenodd;clip-rule:evenodd;fill:#FF5100;}
	.st2{fill-rule:evenodd;clip-rule:evenodd;fill:#FFFFFF;}
	.st3{fill:none;stroke:#1D1E1C;stroke-width:0.5669;stroke-miterlimit:22.9256;}
	.st4{clip-path:url(#SVGID_2_);fill:url(#SVGID_3_);}
	.st5{fill-rule:evenodd;clip-rule:evenodd;fill:#E4391E;}
	.st6{fill-rule:evenodd;clip-rule:evenodd;fill:#0A0712;}
	.st7{fill:#FFFFFF;}
	.st8{fill-rule:evenodd;clip-rule:evenodd;}
	.st9{clip-path:url(#SVGID_5_);fill:url(#SVGID_6_);}
</style>
<g id="Capa_2">
</g>
<g id="Capa_1">
	<g>
		<path class="st1" d="M721.73,329.83c0.19-4.59-0.9-7.6-2.34-12.13l-108.25-0.39l23.16,98.93l109.51,0.31l-3.26-14.47
			C738.74,392.89,724.34,332.66,721.73,329.83z"/>
		<path class="st1" d="M365.38,722.72c6.29-1.29,77-33.1,84.8-36.43l31.1-13.51c6.09-2.51,5.72-2.19,6.7-8.97
			c2.13-14.65,4.51-39.62,8.52-52.88l45.21-0.17c7.9,0.02,5.66-0.73,9.43,19.08c1.96,10.3,4.07,20.61,5.93,30.9
			c1.99,11.03-1.06,8.45,20.51,17.33l105.23,44.83l-92.41-405.34l-134.23-0.08L365.38,722.72z M523.48,415.18
			c2.41,22.04,5.28,44.21,7.82,65.81c2.55,21.73,7.24,43.92,9.31,65.95l-34.93,0.29C507.03,534.93,522.99,416.09,523.48,415.18z"/>
		<path class="st1" d="M833.52,788.72l-85.42-357.2l-109.78-0.03c2.24,17.27,58.29,244.54,66.42,278.96
			c7.99,33.84,0.92,22.64,32.17,36.87C747.55,752.17,828.75,788.06,833.52,788.72z"/>
		<path class="st1" d="M175.56,416.58l105.86,0.01L223.97,783.4c5.69-1.28,37.32-17.39,44.65-21.19
			c13.93-7.21,28.55-14.29,43.32-21.45c22.61-10.97,16.56-0.54,23.03-41.76c3-19.1,5.88-37.21,8.97-56.69
			c5.97-37.68,12-75.04,17.74-112.39c5.6-36.46,10.6-76.77,17.91-112.89l37.14-0.49c3.17-0.83,2.63-2.81,4.3-10.55
			c3.72-17.24,19.31-81.39,19.14-88.71H203.65C200.92,322.84,176.39,409.36,175.56,416.58z"/>
	</g>
	<g>
		<path class="st1" d="M1729.22,650.37l168.99,0.62l1.71-63.12c-20.23,2.97-8.5,8.9-42.7,10.79c-20.05,1.11-45.17-0.22-65.81-0.22
			l0.77-41.76c28.67,0.02,61.12-1.82,82.54,6.26l1.83-65.86c-22.14,7.18-55.04,9.23-83.88,5.18l-1.52-66.66
			c62.11-10.88,98.16,6.15,108.72,6.52l-0.04-58.76l-173.03-2.8c19.01,40.91,11.42,149.73,11.63,210.74
			C1738.57,627.03,1731.58,628.93,1729.22,650.37z"/>
		<path class="st1" d="M2459.84,421.19v192.6c0,30.67-6.54,17.74-10.68,36.2l169.04,1.17l2.3-64.32
			c-35.64,14.35-14.18,12.82-84.09,11.62l-23.52-0.81l0.59-40.11l82.96,1.7l-0.36-61.62c-30.66,8.82-48.85,6.37-83.19,4.96
			l0.68-68.55l68.17-0.67c27.2,0,18,4.43,38.69,10.19v-61.56l-172.86,0.48C2454.07,393.6,2459.84,401.8,2459.84,421.19z"/>
		<path class="st1" d="M1954.72,650.85l57.9,0.01l3.2-144.37c23.27,20.9,57.06,106.96,78.82,141.67l63.71,2.65
			c-17.36-46.72-11.73-74.66-11.73-133.33c0-71.79-8.1-92.02,12.61-136.86l-64.8,0.5l-0.52,142.23
			c-18.32-15.63-64.75-114.16-76.57-142.43l-65.92-0.13c18.67,39.1,11.33,148.67,11.55,210.58
			C1963.09,624.78,1954.72,635.57,1954.72,650.85z"/>
		<path class="st1" d="M2674.01,650.62l63.26,0.14c0-17.25-14.75-90.23,53.78-87.95l2.09,87.27l62.64,0.89
			c-6.4-27.25-11.69-13.29-10.97-59.6c1.09-69.29,1.51-50.23-13.94-69.05c19.9-12.37,14.6-19.2,14.36-49.96
			c-0.17-21.62,0.7-41.54-2.71-62.51c-47.03-39.17-97.01-33.51-170.27-28.03c20.94,35.38,12.45,64.87,12.45,129.99
			C2684.7,562.97,2690.69,607.76,2674.01,650.62z M2738.07,433.81l52.35,1.49l1.93,42.53c-9.68,19.88-36.19,35.92-54.97,42.16
			L2738.07,433.81z"/>
		<path class="st1" d="M1515.41,402.41l-0.22,225.75c43.83,22.14,19.81,23.23,81.09,23.21c49.25-0.01,49.14-4.91,78.86-24.76
			l-0.38-68.96l-50.85-1.35l-2.95,40.79c-28.65,1.98-26.54,4.05-51.15-2.32c-4.95-41.94-2.1-91.01-2.03-133.93
			c0-28.69,0.15-27.59,28.44-27.59c35.4,0,26.03,11.76,27.19,46.56c23.46-8.73,31.68-19.64,51.2-30.94l0.25-44.43
			c-29.67-18.56-31.14-24-78.6-24.08C1534.88,380.25,1554.94,382.66,1515.41,402.41z"/>
		<path class="st1" d="M2211.33,444.02c26.07-9.31,27.34-11.18,64.46-10.49l2.33,169.3c-0.98,36.38-7.96,28.74-10.76,48.19
			l72.91-0.21c-4.59-19.01-8.63-10.42-10.1-42.24l2.29-175.15c40.33-0.48,33.56-3.44,63.13,11.06l0.33-63.85h-184.32L2211.33,444.02
			z"/>
	</g>
	<g>
		<path class="st2" d="M1007.38,223.97l386.82-0.04c-0.02,5.15-20.85,55.55-24.28,65.42l41.39,19.64
			c8.12,4.31,35.12,16.23,40.12,20.57l-58.73,40.56c-7.84,5.17-5.76,8.78-6.72,18.18l-25.66,248.04c-0.08,0.2-0.23,0.52-0.39,0.76
			l-11.83,2.13l3.27,14.69l-199.83,153.25l-65.02-49.81l-41.86,59.04l-0.81-0.53l18.02-79.02l-104.46-82.71l3.27-14.45l-12.3-3.56
			l-25.37-243.26c-0.37-4-0.89-14.01-1.79-17.24c-1.26-4.54-56.54-40.21-63.79-45.94l137.32-60.14L1007.38,223.97z"/>
		<path class="st3" d="M1007.38,223.97l386.82-0.04c-0.02,5.15-20.85,55.55-24.28,65.42l41.39,19.64
			c8.12,4.31,35.12,16.23,40.12,20.57l-58.73,40.56c-7.84,5.17-5.76,8.78-6.72,18.18l-25.66,248.04c-0.08,0.2-0.23,0.52-0.39,0.76
			l-11.83,2.13l3.27,14.69l-199.83,153.25l-65.02-49.81l-41.86,59.04l-0.81-0.53l18.02-79.02l-104.46-82.71l3.27-14.45l-12.3-3.56
			l-25.37-243.26c-0.37-4-0.89-14.01-1.79-17.24c-1.26-4.54-56.54-40.21-63.79-45.94l137.32-60.14L1007.38,223.97z"/>
		<g>
			<defs>
				<path id="SVGID_1_" d="M1041.53,300.69l0.94,0.74l-4.08,17l78.78,0.16c3.4,0.83,0.85-0.81,1.94,2.53
					c0.18-0.3,0.46-1.05,0.54-0.89c0.07,0.15,0.38-0.64,0.47-0.87c0.09-0.22,0.67-2.13,0.73-2.44l154.11,0.13
					c-9.41,0.67-33.1-1-36.86,2.24l72.5-0.6l1.78-15.37l12.11,47.59c2.34-2.92,39.7-99.46,41.64-107.38l-343.63-0.03l-27.22,105.27
					L1041.53,300.69z M1119.1,321.12l-44.94,179.38l-1.99,7.22l64.79-16.63l-15.78,71.2l-35.3,160.14
					c-7,31.75,185.8-292.66,188.32-304.56l-4.31,1.01l-71.62,16.62l39.82-116.22c3.76-3.24,27.44-1.57,36.86-2.24l-154.11-0.13
					c-0.06,0.31-0.64,2.22-0.73,2.44c-0.09,0.23-0.39,1.03-0.47,0.87C1119.56,320.07,1119.28,320.82,1119.1,321.12z"/>
			</defs>
			<clipPath id="SVGID_2_">
				<use xlink:href="#SVGID_1_"  style="overflow:visible;"/>
			</clipPath>
			<linearGradient id="SVGID_3_" gradientUnits="userSpaceOnUse" x1="1180.6931" y1="243.4795" x2="1180.6931" y2="724.6083">
				<stop  offset="0" style="stop-color:#F49807"/>
				<stop  offset="1" style="stop-color:#F4DC00"/>
			</linearGradient>
			<rect x="995.27" y="243.48" class="st4" width="370.85" height="510.69"/>
		</g>
		<path class="st5" d="M1223.63,415.73l-3.25,0.56l-0.92-1.73l-1.09,2.71C1221.79,417.11,1221.22,417.33,1223.63,415.73
			 M1219.46,414.56l0.92,1.73l3.25-0.56l77.86-18.05c-3.97,9.55-111.2,180.56-120.15,195.22
			c-12.68,20.76-107.31,176.24-122.19,191.9c4.39-32.92,35.67-164.42,45.07-206.87c4.86-21.97,11.76-46.79,15.18-68.87l-61.78,15.42
			l-2.34-1.33l47.24-191.25c-4.98-0.6-69.47-1.16-72.78,0.34c-1.55,0.7-9.7,10.37-11.54,12.38c-15.46,16.93-31.52,32.98-47.05,49.78
			c0.15-7.47,7.48-32.26,9.64-41.34c9.41-39.51,23.39-84.97,31.19-122.72l373.5,0.09l-63,163.18c-1.3-1.5-0.94-1.03-1.7-3.63
			c-0.28-0.95-0.66-2.78-0.91-3.84c-0.61-2.57-1.26-5.15-1.89-7.72l-11.69-46.71l-58.38,0.21L1219.46,414.56z M1108.71,724.56
			c1.11-5.39,131.77-215.78,153.28-249.92c9.6-15.23,44.82-70.65,50.98-82.6l1.33-1.53l0.78,2.59l5.71,22.29
			c2.32-3.01,22.32-56.68,26.54-67.71c1.45-3.79,5.81-19.39,9.5-20.96c-1.35-3.17,4.07-15.03,6.04-18.25
			c6.22,0.83,47.12,20.19,49.92,24.46c-6.76,3.26-20.09,13.26-26.8,18.03c-19.89,14.13-16.7,7.97-18.58,26.13
			c-8.26,79.89-17.23,163.52-24.26,243.11l-19.25,3.79l5.23,23.04c-14.21,9.68-30.58,23.27-44.28,34.09
			c-14.59,11.53-29.68,22.54-44.22,34.15c-14.55,11.61-29.62,22.59-44.23,34.18c-7.26,5.77-38.66,30.96-45.06,33.6l-53.59-41.71
			L1108.71,724.56z M857.44,329.71c7.25,5.73,62.53,41.39,63.79,45.94c0.9,3.23,1.42,13.24,1.79,17.24l25.37,243.26l12.3,3.56
			l-3.27,14.45l104.46,82.71l-18.02,79.02l0.81,0.53l41.86-59.04l65.02,49.81l199.83-153.25l-3.27-14.69l11.83-2.13
			c0.16-0.24,0.3-0.56,0.39-0.76L1386,388.32c0.96-9.4-1.12-13.02,6.72-18.18l58.73-40.56c-5-4.35-32.01-16.27-40.12-20.57
			l-41.39-19.64c3.42-9.87,24.25-60.28,24.28-65.42l-386.82,0.04l-12.63,45.6L857.44,329.71z M895.76,332l93.67-39.72l-6.99,22.73
			l0.43,1.47c0.03,0.21,0.11,0.51,0.12,0.74l-19.96,79.15l-4.28,20.9l5.21-4.79l1.09,4.17c-0.5-8.74,4.57-10.56,10.18-16.52
			l49.81-53.48c7.55-8.42,5.72-8.42,17.52-8.34c17.17,0.12,34.37-0.17,51.73,0.09l-48.68,196.25l64.97-16.41l-44.12,196.92
			c-3.98-1.71-82.52-64.07-87.11-68.95l5.03-21.91l-18.81-4.77l-25.89-256.75L895.76,332z M1252.5,338.7l47.26-0.41
			c3.49,2.1,6.16,19.06,7.42,24.11c2.04,8.19,4.89,17.53,6.2,25.54l-84.97,19.79L1252.5,338.7z"/>
		<path class="st0" d="M1055.28,523.15l0.02,1.67l2.32-0.35l61.78-15.42c-3.41,22.09-10.31,46.9-15.18,68.87
			c-9.39,42.45-40.68,173.95-45.07,206.87c14.87-15.66,109.51-171.14,122.19-191.9c8.95-14.66,116.18-185.67,120.15-195.22
			l-77.86,18.05l-5.27,1.54l1.09-2.71l28.46-82.61l58.38-0.21c1.64,6.54,13.91,59.25,16.19,61.89l63-163.18l-373.5-0.09
			c-7.8,37.74-21.78,83.2-31.19,122.72c-2.16,9.07-9.49,33.86-9.64,41.34c15.53-16.8,31.59-32.85,47.05-49.78
			c1.83-2.01,9.99-11.68,11.54-12.38c3.31-1.5,67.8-0.95,72.78-0.34L1055.28,523.15z M1237.94,319.28l-39.67,116.22l75.92-17.63
			l-188.32,304.56l51.08-231.34l-64.79,16.63l46.94-186.6c-1.09-3.34,1.47-1.7-1.94-2.53l-78.78-0.16l4.08-17l-0.94-0.74
			l-46.26,48.06l27.22-105.27l343.63,0.03c-1.94,7.92-39.3,104.47-41.64,107.38l-12.11-47.59l-1.78,15.37L1237.94,319.28z"/>
		<path class="st0" d="M1356.83,326.73l17.32,7.82c-2.55,3.92-18.91,13.29-23.72,17.16l-26.03,251.24l-24.62,5.37l6.62,31.64
			l-153.88,118.47l-43.81-33.87l-10.98,16.78l53.59,41.71c6.4-2.63,37.8-27.83,45.06-33.6c14.6-11.59,29.67-22.56,44.23-34.18
			c14.54-11.61,29.63-22.62,44.22-34.15c13.69-10.82,30.07-24.41,44.28-34.09l-5.23-23.04l19.25-3.79
			c7.03-79.59,16-163.22,24.26-243.11c1.88-18.16-1.31-11.99,18.58-26.13c6.71-4.77,20.04-14.76,26.8-18.03
			c-2.8-4.28-43.69-23.63-49.92-24.46C1360.9,311.7,1355.48,323.56,1356.83,326.73"/>
		<path class="st6" d="M895.76,332l43.93,30.8l25.89,256.75l18.81,4.77l-5.03,21.91c4.59,4.88,83.13,67.24,87.11,68.95l4.53-19.96
			c-3.81-1.92-67.23-53.79-69.35-56.59l7.3-30.17l-24.56-5.25c-1.92-3.14-18.43-169.36-19.34-186.54l-1.08-4.17l-5.21,4.79
			l4.28-20.9l-4.85-44.48l-23.78-17.77l48.04-19.11l6.99-22.73L895.76,332z"/>
	</g>
	<g>
		<path class="st7" d="M629.92,417.26c0.48,2.03,2.28,3.47,4.37,3.47l109.51,0.31c0,0,0.01,0,0.01,0c1.36,0,2.66-0.62,3.51-1.68
			c0.86-1.07,1.18-2.47,0.88-3.81l-3.25-14.41c-0.97-4.92-5.07-22.43-9.14-38.67c-5.81-23.19-8.25-30.85-9.56-33.75
			c-0.02-4.38-1.06-7.66-2.26-11.41l-0.31-0.97c-0.59-1.87-2.32-3.14-4.27-3.14l-108.25-0.39c-0.01,0-0.01,0-0.02,0
			c-1.37,0-2.67,0.62-3.52,1.7c-0.86,1.08-1.17,2.49-0.86,3.83L629.92,417.26z M716.09,322.19c0.81,2.66,1.26,4.69,1.14,7.46
			c-0.04,1.01,0.26,2.01,0.85,2.82c2.78,5.59,15.98,59.95,18.05,70.48c0.01,0.04,0.02,0.08,0.03,0.12l2.02,8.97l-100.31-0.29
			l-21.05-89.92L716.09,322.19z"/>
		<path class="st7" d="M535.77,480.46c-0.95-8.06-1.94-16.19-2.94-24.37c-1.66-13.57-3.37-27.6-4.88-41.4
			c-0.21-1.96-1.68-3.55-3.62-3.93c-1.94-0.38-3.89,0.55-4.82,2.29c-0.51,0.95-0.74,1.39-9.07,63.29
			c-3.94,29.3-8.51,63.84-9.23,70.41c-0.14,1.28,0.27,2.55,1.14,3.51c0.85,0.94,2.07,1.48,3.34,1.48c0.01,0,0.02,0,0.04,0
			l34.93-0.29c1.26-0.01,2.46-0.55,3.3-1.48c0.84-0.94,1.26-2.18,1.14-3.44c-1.17-12.41-3.17-24.98-5.11-37.14
			C538.46,499.85,536.89,490,535.77,480.46z M510.76,542.69c2.02-16.19,7.97-60.76,12.29-92.42c0.28,2.31,0.56,4.62,0.84,6.91
			c1,8.17,1.99,16.29,2.93,24.33c1.14,9.72,2.73,19.67,4.26,29.29c1.66,10.41,3.37,21.12,4.54,31.68L510.76,542.69z"/>
		<path class="st7" d="M594.8,316.54c-0.47-2.05-2.29-3.5-4.38-3.5l-134.23-0.08c0,0,0,0,0,0c-2.11,0-3.93,1.46-4.39,3.52
			l-90.8,405.26c-0.33,1.49,0.11,3.05,1.18,4.14c1.07,1.09,2.62,1.56,4.11,1.26c4.45-0.91,30.92-12.44,72.19-30.75
			c6.81-3.02,11.74-5.21,13.5-5.96L483,676.94l0.44-0.18c6.76-2.78,7.83-4.15,8.85-11.26l0.15-1.04c0.55-3.78,1.12-8.24,1.72-12.95
			c1.51-11.88,3.35-26.36,5.79-36.09l41.76-0.16h0.84c0.48,0,1.02,0,1.47,0.01c0.28,1.15,0.61,3.17,0.95,5.28
			c0.42,2.62,0.95,5.88,1.76,10.13c0.73,3.86,1.49,7.72,2.25,11.58c1.24,6.33,2.52,12.87,3.68,19.27c0.22,1.23,0.38,2.29,0.52,3.2
			c1.31,8.83,3.58,9.75,16.15,14.82c1.88,0.76,4.05,1.64,6.51,2.65l105.23,44.83c0.57,0.24,1.17,0.36,1.76,0.36
			c1.04,0,2.06-0.36,2.89-1.05c1.3-1.08,1.88-2.8,1.5-4.45L594.8,316.54z M579.31,673.9c-2.53-1.04-4.72-1.92-6.62-2.69
			c-5.22-2.11-8.67-3.5-9.79-4.45c-0.31-0.26-0.42-0.6-0.83-3.35c-0.15-0.99-0.32-2.14-0.56-3.48c-1.17-6.47-2.46-13.04-3.7-19.4
			c-0.75-3.85-1.51-7.69-2.24-11.54c-0.79-4.13-1.3-7.32-1.72-9.89c-0.88-5.43-1.28-7.91-2.81-9.94c-2.21-2.92-5.4-2.92-8.5-2.91
			l-46.05,0.17c-1.98,0.01-3.72,1.3-4.29,3.2c-3.1,10.24-5.16,26.45-6.97,40.75c-0.59,4.67-1.16,9.09-1.69,12.79l-0.15,1.07
			c-0.17,1.17-0.34,2.38-0.49,2.95c-0.53,0.3-1.72,0.78-2.87,1.26l-31.6,13.72c-1.8,0.77-6.75,2.96-13.59,6
			c-15.76,6.99-48.5,21.52-63.25,27.52l88.22-393.71l127.04,0.07l89.65,393.25L579.31,673.9z"/>
		<path class="st7" d="M837.9,787.67l-85.42-357.2c-0.48-2.02-2.29-3.45-4.38-3.45l-109.78-0.03c0,0,0,0,0,0
			c-1.29,0-2.53,0.56-3.38,1.53c-0.85,0.97-1.25,2.27-1.08,3.55c1.67,12.92,31.82,136.73,51.77,218.65
			c7.02,28.85,12.57,51.63,14.73,60.77c1.12,4.76,1.96,8.67,2.63,11.81c3.28,15.38,3.95,16.94,16.87,21.85
			c3.61,1.37,8.55,3.25,15.19,6.27c0.89,0.41,91.61,40.89,97.86,41.76c0.21,0.03,0.41,0.04,0.62,0.04c1.26,0,2.47-0.53,3.33-1.48
			C837.86,790.64,838.25,789.12,837.9,787.67z M738.77,743.23c-6.9-3.14-12-5.08-15.72-6.5c-4.88-1.86-7.08-2.73-8.02-3.97
			c-1.15-1.52-1.94-5.22-3.25-11.35c-0.68-3.18-1.52-7.14-2.67-12c-2.16-9.17-7.72-31.97-14.74-60.83
			c-17.21-70.66-45.09-185.15-50.67-212.6l100.84,0.03l82.64,345.61C806.93,773.42,751.53,749.04,738.77,743.23z"/>
		<path class="st7" d="M370.82,498.78c3.74-25.85,7.59-52.54,12.47-77.29l33.5-0.44c0.37,0,0.73-0.05,1.09-0.15
			c5.21-1.37,5.91-5.2,6.71-9.62c0.22-1.23,0.48-2.63,0.84-4.33c1.02-4.75,2.97-13.14,5.23-22.87c8.02-34.58,14.14-61.47,14.01-66.9
			c-0.06-2.44-2.06-4.39-4.5-4.39H203.65c-1.72,0-3.28,0.98-4.04,2.52c-3.11,6.33-27.63,92.98-28.51,100.77
			c-0.15,1.27,0.26,2.55,1.11,3.51c0.85,0.96,2.07,1.5,3.36,1.5l100.6,0.01L219.53,782.7c-0.23,1.47,0.28,2.96,1.37,3.98
			c0.84,0.79,1.95,1.21,3.07,1.21c0.33,0,0.66-0.04,0.99-0.11c7.09-1.6,44.15-20.77,45.73-21.58c13.25-6.86,26.84-13.46,41.23-20.43
			l1.99-0.97c3.74-1.81,6.67-3.03,9.03-4c11.5-4.75,11.78-6.88,13.97-23.49c0.6-4.55,1.35-10.22,2.51-17.62
			c2.2-14.04,4.34-27.54,6.55-41.44l2.42-15.24c1.57-9.93,3.15-19.84,4.73-29.73c4.32-27.12,8.79-55.16,13.01-82.67
			C367.72,520.24,369.3,509.33,370.82,498.78z M357.23,529.24c-4.22,27.49-8.69,55.52-13,82.63c-1.58,9.9-3.16,19.81-4.73,29.74
			l-2.42,15.24c-2.21,13.91-4.35,27.41-6.55,41.45c-1.18,7.51-1.93,13.24-2.54,17.84c-0.92,7.02-1.48,11.26-2.46,12.99
			c-0.58,1.02-1.73,1.58-6.02,3.36c-2.47,1.02-5.54,2.29-9.52,4.22l-1.99,0.97c-13.8,6.7-28.08,13.62-41.44,20.54
			c-11.63,6.02-27.73,14.02-36.92,18.14l56.23-359.07c0.2-1.3-0.17-2.62-1.03-3.62s-2.1-1.57-3.42-1.57l-100.29-0.01
			c4.46-18.15,21.07-76.78,25.63-90.3h228.37c-1.96,11.62-8.85,41.32-13.24,60.25c-2.26,9.76-4.22,18.19-5.26,23
			c-0.4,1.85-0.68,3.39-0.9,4.62c-0.15,0.84-0.32,1.75-0.46,2.4l-35.73,0.47c-2.12,0.03-3.93,1.53-4.35,3.61
			c-5.26,25.99-9.33,54.13-13.26,81.35C360.32,508.51,358.82,518.91,357.23,529.24z"/>
	</g>
	<g>
		<path class="st7" d="M1899.27,583.42c-9.21,1.35-12.72,3.44-15.82,5.27c-3.67,2.18-7.47,4.43-26.47,5.48
			c-12.94,0.72-28.13,0.4-42.82,0.1c-6.31-0.13-12.35-0.26-18.15-0.3l0.61-32.79c3.1-0.02,6.24-0.04,9.31-0.07
			c24.55-0.22,49.95-0.46,67.22,6.06c1.36,0.51,2.89,0.34,4.1-0.47c1.21-0.81,1.95-2.16,1.99-3.61l1.83-65.86
			c0.04-1.46-0.63-2.85-1.8-3.73c-1.17-0.88-2.7-1.13-4.08-0.68c-20.6,6.68-50.85,8.77-78.08,5.5l-1.34-58.9
			c44.93-7.17,75.32,0.56,91.85,4.77c5.36,1.36,9.23,2.35,12.12,2.45c1.21,0.04,2.41-0.41,3.28-1.26c0.88-0.85,1.38-2.02,1.37-3.24
			l-0.04-58.76c0-2.46-1.97-4.46-4.43-4.5l-173.03-2.8c-1.55-0.03-3,0.75-3.85,2.05c-0.84,1.3-0.96,2.94-0.31,4.35
			c14.51,31.24,13.01,105.03,11.81,164.32c-0.33,16.19-0.64,31.47-0.59,44.53c0.08,21.55-2.51,30.4-5.02,38.95
			c-1.6,5.46-3.25,11.1-4.18,19.6c-0.14,1.27,0.27,2.54,1.12,3.49c0.85,0.95,2.06,1.5,3.34,1.5l168.99,0.62c0.01,0,0.01,0,0.02,0
			c2.44,0,4.43-1.94,4.5-4.38l1.71-63.12c0.04-1.33-0.52-2.6-1.51-3.49C1901.91,583.63,1900.59,583.23,1899.27,583.42z
			 M1893.83,646.48l-159.46-0.58c0.85-5.09,2-9,3.19-13.09c2.68-9.17,5.46-18.65,5.38-41.51c-0.05-12.96,0.26-28.19,0.59-44.32
			c1.15-56.55,2.56-126.09-10.02-161.79l161.82,2.62l0.03,49.03c-1.61-0.37-3.49-0.85-5.55-1.38c-17.65-4.49-50.5-12.85-99.44-4.27
			c-2.19,0.38-3.77,2.31-3.72,4.54l1.52,66.66c0.05,2.2,1.69,4.05,3.87,4.35c26.91,3.77,57.42,2.33,79.84-3.59l-1.49,53.66
			c-18.22-5.13-41.74-4.91-64.56-4.7c-4.51,0.04-9.18,0.08-13.64,0.08c0,0,0,0,0,0c-2.45,0-4.45,1.96-4.5,4.42l-0.77,41.76
			c-0.02,1.21,0.44,2.37,1.29,3.24c0.85,0.86,2,1.35,3.21,1.35c7.09,0,14.6,0.16,22.55,0.32c14.86,0.31,30.23,0.63,43.51-0.11
			c21.21-1.17,25.97-3.99,30.57-6.72c1.94-1.15,3.69-2.19,7.23-3.09L1893.83,646.48z"/>
		<path class="st7" d="M2623.09,583.14c-1.25-0.88-2.85-1.06-4.27-0.49c-7.24,2.91-12.26,5.23-15.93,6.93
			c-11.87,5.48-11.87,5.48-45.53,4.78c-5.88-0.12-12.77-0.27-20.8-0.4l-19.11-0.66l0.46-31.17l78.43,1.61
			c1.22,0.01,2.39-0.44,3.25-1.29c0.87-0.85,1.35-2.02,1.34-3.23l-0.36-61.62c-0.01-1.41-0.68-2.73-1.8-3.58
			c-1.13-0.84-2.59-1.11-3.94-0.72c-25.88,7.44-42.97,6.62-68.84,5.38c-2.75-0.13-5.6-0.27-8.57-0.4l0.6-59.79l63.71-0.63
			c15.55,0,18.01,1.4,22.09,3.72c3.08,1.75,6.91,3.94,15.4,6.3c1.35,0.38,2.81,0.1,3.93-0.75s1.78-2.18,1.78-3.58v-61.56
			c0-1.2-0.48-2.34-1.32-3.19c-0.84-0.84-1.99-1.31-3.18-1.31c0,0-0.01,0-0.01,0l-172.86,0.48c-1.61,0-3.09,0.87-3.89,2.26
			c-0.8,1.4-0.79,3.11,0.01,4.5c0.5,0.86,0.99,1.7,1.48,2.53c5.68,9.65,10.17,17.27,10.17,33.95v192.6
			c0,16.71-1.87,18.86-4.03,21.36c-2.07,2.39-4.64,5.35-6.54,13.85c-0.3,1.33,0.02,2.72,0.87,3.78c0.85,1.06,2.13,1.69,3.49,1.7
			l169.04,1.17c0.01,0,0.02,0,0.03,0c2.42,0,4.41-1.92,4.5-4.34l2.3-64.32C2625.06,585.46,2624.34,584.02,2623.09,583.14z
			 M2613.86,646.62l-158.66-1.09c0.93-2.2,1.91-3.32,2.91-4.49c3.87-4.47,6.22-8.54,6.22-27.25v-192.6
			c0-16.41-4.08-25.67-8.94-34.27l160.54-0.44v50.9c-3.6-1.33-5.72-2.53-7.65-3.63c-5.65-3.22-9.4-4.91-26.59-4.91l-68.17,0.67
			c-2.45,0.02-4.43,2-4.46,4.46l-0.68,68.55c-0.02,2.43,1.89,4.44,4.32,4.54c4.55,0.19,8.81,0.39,12.86,0.59
			c24.86,1.19,41.88,2.01,66.05-4.17l0.3,51.15l-78.34-1.6c-1.14-0.02-2.36,0.43-3.22,1.26c-0.86,0.83-1.36,1.97-1.37,3.17
			l-0.59,40.11c-0.04,2.45,1.9,4.48,4.34,4.56l23.6,0.81c8.1,0.14,14.97,0.28,20.84,0.4c35.06,0.73,35.73,0.74,49.48-5.6
			c2.5-1.15,5.39-2.49,9.1-4.08L2613.86,646.62z"/>
		<path class="st7" d="M2159.22,376.13c-0.01,0-0.02,0-0.04,0l-64.8,0.5c-2.46,0.02-4.46,2.02-4.46,4.48l-0.47,130.15
			c-20.18-28.19-56.76-105.26-67.96-132.06c-0.7-1.67-2.33-2.76-4.14-2.77l-65.92-0.13c0,0-0.01,0-0.01,0c-1.54,0-2.98,0.79-3.8,2.1
			c-0.83,1.31-0.92,2.95-0.26,4.34c14.25,29.84,12.82,104.11,11.67,163.8c-0.31,16.28-0.61,31.66-0.56,44.86
			c0.07,19.41-2.83,31.02-5.16,40.35c-1.66,6.66-3.1,12.4-3.1,19.1c0,2.48,2.01,4.5,4.5,4.5l57.9,0.01h0c2.45,0,4.44-1.95,4.5-4.4
			l2.95-132.92c12.7,16.88,28.02,48.41,41.8,76.78c10.58,21.78,20.57,42.35,28.96,55.72c0.79,1.26,2.14,2.04,3.62,2.11l63.71,2.65
			c1.49,0.06,2.94-0.63,3.83-1.85c0.89-1.22,1.1-2.8,0.58-4.21c-13.37-35.96-12.8-60.6-11.94-97.88c0.23-10,0.49-21.33,0.49-33.88
			c0-18.01-0.5-32.61-0.94-45.49c-1.3-37.83-1.95-56.82,13.14-89.48c0.65-1.4,0.53-3.03-0.3-4.33
			C2162.17,376.91,2160.75,376.13,2159.22,376.13z M2141.17,472.31c0.44,12.81,0.94,27.32,0.94,45.18c0,12.44-0.26,23.72-0.49,33.67
			c-0.83,36.13-1.4,60.7,10.24,94.88l-54.66-2.28c-7.88-13-17.3-32.4-27.25-52.87c-17.72-36.48-36.04-74.19-51.14-87.75
			c-1.31-1.18-3.18-1.48-4.79-0.78c-1.61,0.7-2.67,2.27-2.71,4.03l-3.1,139.97l-48.74-0.01c0.45-3.93,1.42-7.82,2.57-12.42
			c2.45-9.82,5.5-22.03,5.43-42.57c-0.05-13.1,0.25-28.42,0.56-44.65c1.09-56.84,2.43-126.71-9.9-161.39l56.22,0.11
			c11.37,26.4,57.19,124.79,76.62,141.36c1.33,1.14,3.21,1.4,4.8,0.67c1.59-0.73,2.62-2.32,2.62-4.07l0.5-137.78l53.38-0.41
			C2139.24,416.08,2139.95,436.71,2141.17,472.31z"/>
		<path class="st7" d="M2790.54,430.8l-52.35-1.49c-1.21-0.04-2.38,0.42-3.25,1.26c-0.87,0.84-1.37,1.99-1.38,3.2l-0.69,86.19
			c-0.01,1.45,0.68,2.82,1.85,3.68c0.78,0.57,1.71,0.86,2.65,0.86c0.48,0,0.96-0.08,1.42-0.23c20.66-6.87,47.49-23.71,57.59-44.46
			c0.33-0.68,0.48-1.42,0.45-2.17l-1.93-42.53C2794.8,432.74,2792.9,430.87,2790.54,430.8z M2741.93,513.51l0.6-75.07l43.58,1.24
			l1.69,37.18C2779.73,492.3,2759.79,506.22,2741.93,513.51z"/>
		<path class="st7" d="M2860.17,649.94c-2.32-9.89-4.55-14.7-6.35-18.57c-3.09-6.67-4.96-10.7-4.51-39.93l0.14-8.69
			c0.76-47.17,0.78-48.07-7.8-55.77c-1.15-1.03-2.46-2.21-3.99-3.79c13.77-9.98,13.36-18.54,12.56-35.52
			c-0.21-4.41-0.44-9.42-0.49-15.34c-0.03-4.21-0.03-8.35-0.02-12.45c0.03-17.23,0.05-33.51-2.75-50.74
			c-0.17-1.07-0.73-2.04-1.56-2.74c-46.45-38.69-95.91-34.94-164.38-29.75c-3,0.23-6.03,0.46-9.11,0.69
			c-1.55,0.12-2.93,1.03-3.65,2.41c-0.72,1.38-0.68,3.03,0.12,4.37c15.05,25.44,14.21,47.81,12.82,84.88
			c-0.47,12.43-1,26.52-1,42.82c0,10.99,0.28,21.72,0.54,32.09c1,38.75,1.86,72.22-10.93,105.07c-0.54,1.38-0.36,2.94,0.48,4.17
			c0.84,1.23,2.22,1.96,3.71,1.96l63.26,0.14c1.21-0.03,2.34-0.47,3.19-1.31c0.85-0.84,1.32-1.99,1.32-3.19
			c0-2.24-0.22-5.25-0.48-8.74c-1.2-16.15-3.42-46.21,12.33-62.61c7.51-7.82,18.61-11.9,33.04-12.13l1.99,82.92
			c0.06,2.42,2.02,4.36,4.43,4.39l62.64,0.89c0.02,0,0.04,0,0.06,0c1.36,0,2.65-0.62,3.51-1.68
			C2860.16,652.71,2860.49,651.29,2860.17,649.94z M2797.54,645.64l-1.99-82.94c-0.06-2.38-1.97-4.31-4.35-4.39
			c-19.16-0.64-34,4.36-44.08,14.86c-18.53,19.3-16.11,51.96-14.81,69.51c0.09,1.26,0.18,2.46,0.26,3.57l-52.14-0.12
			c11.1-32.66,10.23-66.62,9.31-102.45c-0.26-10.32-0.54-20.98-0.54-31.86c0-16.13,0.53-30.13,0.99-42.48
			c1.3-34.56,2.19-58.27-10.63-83.55c0.72-0.05,1.43-0.11,2.15-0.16c68.14-5.17,113.38-8.6,156.63,26.62
			c2.42,15.92,2.4,31.33,2.37,47.62c-0.01,4.13-0.01,8.3,0.02,12.54c0.05,6.1,0.29,11.2,0.5,15.69
			c0.83,17.65,1.03,21.85-12.73,30.41c-1.1,0.68-1.85,1.81-2.06,3.09c-0.21,1.28,0.14,2.59,0.96,3.59c3.46,4.22,6.23,6.7,8.25,8.51
			c5.52,4.95,5.52,4.95,4.81,48.92l-0.14,8.7c-0.46,29.9,1.51,35.6,5.34,43.86c1.3,2.81,2.74,5.91,4.29,11.23L2797.54,645.64z"/>
		<path class="st7" d="M1674.88,553.16l-50.85-1.35c-2.38-0.06-4.43,1.78-4.61,4.17l-2.67,36.9c-4.2,0.32-7.68,0.63-10.6,0.9
			c-13.48,1.21-16.2,1.46-32.22-2.6c-3.25-30.06-2.66-63.6-2.08-96.08c0.21-11.91,0.41-23.16,0.43-34.26c0-11.08,0-19.09,2.1-21.19
			c1.94-1.93,8.65-1.93,18.82-1.91l3.02,0c11.31,0,17.8,1.27,20.45,4c2.91,3.01,2.7,9.57,2.38,19.51
			c-0.17,5.39-0.37,11.5-0.13,18.69c0.05,1.45,0.79,2.78,1.99,3.59c1.2,0.81,2.72,0.98,4.08,0.48
			c15.33-5.71,24.33-12.26,33.86-19.19c5.4-3.93,10.99-8,18.03-12.07c1.38-0.8,2.24-2.27,2.25-3.87l0.25-44.43
			c0.01-1.56-0.79-3.01-2.11-3.84c-3.76-2.35-7.12-4.53-10.08-6.45c-21.07-13.65-28.17-18.25-70.9-18.32
			c-43.92-0.06-47.38,1.07-61.1,10c-4.64,3.02-10.99,7.15-21.77,12.54c-1.52,0.76-2.49,2.32-2.49,4.02l-0.22,225.75
			c0,1.7,0.95,3.25,2.47,4.02c12.68,6.41,19.53,10.99,24.53,14.33c13.28,8.89,15.6,9.36,56.65,9.36c0.63,0,1.28,0,1.93,0
			c44.39-0.01,50.64-4.34,71.36-18.68c2.93-2.03,6.25-4.33,10-6.83c1.26-0.84,2.01-2.25,2-3.77l-0.38-68.96
			C1679.25,555.2,1677.31,553.22,1674.88,553.16z M1662.52,629.78c-19.93,13.79-24.66,17.07-66.24,17.08
			c-41.83-0.01-42.28-0.28-53.58-7.84c-4.86-3.25-11.39-7.62-23-13.62l0.21-220.23c9.75-5.01,15.72-8.89,20.17-11.79
			c11.73-7.63,13.22-8.61,56.18-8.54c40.07,0.07,45.57,3.63,66.02,16.87c2.42,1.57,5.11,3.31,8.07,5.18l-0.22,39.38
			c-6.39,3.85-11.57,7.62-16.58,11.27c-7.68,5.59-14.99,10.91-25.74,15.63c0-4.24,0.12-8.09,0.24-11.63
			c0.38-11.79,0.66-20.32-4.91-26.06c-4.64-4.79-12.43-6.74-26.91-6.74l-3.01,0c-13.73-0.02-20.62-0.03-25.19,4.54
			c-4.74,4.74-4.74,12.36-4.74,27.55c-0.02,11.03-0.22,22.24-0.43,34.11c-0.6,33.88-1.22,68.92,2.49,100.36
			c0.22,1.84,1.54,3.36,3.34,3.83c20.25,5.24,23.35,4.96,38.28,3.62c3.74-0.34,8.4-0.76,14.31-1.17c2.24-0.15,4.02-1.93,4.18-4.16
			l2.64-36.5l42.2,1.12l0.34,62.18C1667.64,626.24,1664.94,628.1,1662.52,629.78z"/>
		<path class="st7" d="M2395.91,376.13h-184.32c-2.48,0-4.49,2-4.5,4.48l-0.25,63.39c-0.01,1.47,0.7,2.84,1.9,3.69
			c1.2,0.85,2.73,1.06,4.11,0.56c2.38-0.85,4.54-1.63,6.55-2.36c18.91-6.85,23.04-8.35,51.95-7.94l2.26,164.85
			c-0.58,21.22-3.21,26.54-5.75,31.68c-1.86,3.76-3.78,7.65-4.97,15.9c-0.19,1.29,0.2,2.61,1.06,3.59c0.85,0.98,2.09,1.55,3.4,1.55
			c0,0,0.01,0,0.01,0l72.91-0.21c1.38,0,2.68-0.64,3.53-1.72c0.85-1.08,1.16-2.5,0.83-3.83c-1.8-7.47-3.62-11.14-5.08-14.09
			c-2.24-4.52-4.01-8.1-4.9-27.17l2.23-170.64c4.95-0.09,9.12-0.2,12.63-0.3c20.56-0.58,20.56-0.57,42.57,10.23l1.5,0.74
			c1.39,0.68,3.03,0.6,4.35-0.22c1.32-0.82,2.12-2.25,2.13-3.8l0.33-63.85c0.01-1.2-0.46-2.35-1.31-3.2
			C2398.26,376.61,2397.11,376.13,2395.91,376.13z M2391.11,437.29c-18.87-9.17-21.17-9.3-41.85-8.73
			c-4.47,0.12-10.03,0.28-16.88,0.36c-2.44,0.03-4.42,2-4.45,4.44l-2.29,175.15c0,0.09,0,0.18,0,0.27
			c0.93,20.05,2.82,24.79,5.83,30.88c0.92,1.85,1.85,3.74,2.83,6.67l-61.52,0.18c0.88-3.46,1.95-5.63,3.14-8.04
			c2.98-6.02,6.05-12.24,6.68-35.52c0-0.06,0-0.12,0-0.18l-2.33-169.3c-0.03-2.43-1.99-4.39-4.42-4.44
			c-4.33-0.08-8.19-0.12-11.68-0.12c-24.34,0-30.22,2.13-47.86,8.52c-0.16,0.06-0.31,0.11-0.47,0.17l0.21-52.47h175.32
			L2391.11,437.29z"/>
	</g>
</g>
</svg>
