<?xml version="1.0" encoding="utf-8"?>
<!-- Generator: Adobe Illustrator 25.3.1, SVG Export Plug-In . SVG Version: 6.00 Build 0)  -->
<svg version="1.1" id="Capa_1" xmlns="http://www.w3.org/2000/svg" xmlns:xlink="http://www.w3.org/1999/xlink" x="0px" y="0px"
	 viewBox="0 0 1080 1080" style="enable-background:new 0 0 1080 1080;" xml:space="preserve">
<style type="text/css">
	.st0{fill-rule:evenodd;clip-rule:evenodd;fill:#FFFFFF;}
	.st1{fill-rule:evenodd;clip-rule:evenodd;fill:#1D1D1B;}
	.st2{fill-rule:evenodd;clip-rule:evenodd;fill:#42B6A6;}
	.st3{fill-rule:evenodd;clip-rule:evenodd;fill:#47B7A6;}
	.st4{fill-rule:evenodd;clip-rule:evenodd;fill:#F4FAFD;}
	.st5{fill-rule:evenodd;clip-rule:evenodd;fill:#F2F6F8;}
	.st6{fill-rule:evenodd;clip-rule:evenodd;fill:#050213;}
	.st7{fill-rule:evenodd;clip-rule:evenodd;fill:#E5391C;}
	.st8{fill-rule:evenodd;clip-rule:evenodd;fill:#EFF3F5;}
	.st9{fill-rule:evenodd;clip-rule:evenodd;fill:#F18B00;}
	.st10{fill-rule:evenodd;clip-rule:evenodd;fill:#EC6B06;}
	.st11{fill-rule:evenodd;clip-rule:evenodd;fill:#F08700;}
	.st12{fill-rule:evenodd;clip-rule:evenodd;fill:#040313;}
</style>
<g>
	<path class="st2" d="M463.94,723.66l27.86,0.1l0.28-10.41c-3.33,0.49-1.4,1.47-7.04,1.78c-3.31,0.18-7.45-0.04-10.85-0.04
		l0.13-6.88c4.73,0,10.08-0.3,13.61,1.03l0.3-10.86c-3.65,1.18-9.07,1.52-13.83,0.85l-0.25-10.99c10.24-1.79,16.18,1.01,17.92,1.07
		l-0.01-9.69l-28.53-0.46c3.13,6.74,1.88,24.69,1.92,34.74C465.48,719.81,464.33,720.12,463.94,723.66"/>
	<path class="st2" d="M584.39,685.87v31.75c0,5.06-1.08,2.92-1.76,5.97l27.87,0.19l0.38-10.6c-5.88,2.37-2.34,2.11-13.86,1.92
		l-3.88-0.13l0.1-6.61l13.68,0.28l-0.06-10.16c-5.06,1.45-8.05,1.05-13.71,0.82l0.11-11.3l11.24-0.11c4.49,0,2.97,0.73,6.38,1.68
		v-10.15l-28.5,0.08C583.44,681.33,584.39,682.68,584.39,685.87"/>
	<path class="st3" d="M501.11,723.74l9.55,0l0.53-23.8c3.84,3.45,9.41,17.63,12.99,23.36l10.5,0.44c-2.86-7.7-1.93-12.31-1.93-21.98
		c0-11.84-1.34-15.17,2.08-22.56l-10.68,0.08l-0.08,23.45c-3.02-2.58-10.68-18.82-12.62-23.48l-10.87-0.02
		c3.08,6.45,1.87,24.51,1.9,34.72C502.49,719.44,501.11,721.22,501.11,723.74"/>
	<path class="st3" d="M619.7,723.7l10.43,0.02c0-2.84-2.43-14.87,8.87-14.5l0.34,14.39l10.33,0.15c-1.06-4.49-1.93-2.19-1.81-9.83
		c0.18-11.42,0.25-8.28-2.3-11.38c3.28-2.04,2.41-3.17,2.37-8.24c-0.03-3.56,0.12-6.85-0.45-10.31c-7.75-6.46-15.99-5.52-28.07-4.62
		c3.45,5.83,2.05,10.69,2.05,21.43C621.46,709.25,622.45,716.63,619.7,723.7 M630.26,687.95l8.63,0.25l0.32,7.01
		c-1.6,3.28-5.97,5.92-9.06,6.95L630.26,687.95z"/>
	<path class="st3" d="M428.69,682.78l-0.04,37.22c7.23,3.65,3.27,3.83,13.37,3.83c8.12,0,8.1-0.81,13-4.08l-0.06-11.37l-8.38-0.22
		l-0.49,6.72c-4.72,0.33-4.38,0.67-8.43-0.38c-0.82-6.92-0.35-15-0.33-22.08c0-4.73,0.03-4.55,4.69-4.55c5.84,0,4.29,1.94,4.48,7.68
		c3.87-1.44,5.22-3.24,8.44-5.1l0.04-7.33c-4.89-3.06-5.13-3.96-12.96-3.97C431.9,679.12,435.21,679.52,428.69,682.78"/>
	<path class="st3" d="M543.42,689.64c4.3-1.53,4.51-1.84,10.63-1.73l0.38,27.91c-0.16,6-1.31,4.74-1.77,7.94l12.02-0.03
		c-0.76-3.13-1.42-1.72-1.67-6.96l0.38-28.88c6.65-0.08,5.53-0.57,10.41,1.82l0.06-10.53h-30.39L543.42,689.64z"/>
	<path class="st4" d="M735.71,402.13l3.04,12.97l73.04,0.11l-19.58-83.07l-73.68-0.04l2.47,11.25L735.71,402.13z M704.93,342.57
		c0.16-3.84-0.76-6.37-1.96-10.16l-90.66-0.33l19.4,82.86l91.72,0.26l-2.73-12.12C719.18,395.39,707.12,344.95,704.93,342.57z"/>
	<path class="st5" d="M406.48,671.63c5.27-1.08,64.49-27.72,71.03-30.51l26.04-11.32c5.1-2.1,4.79-1.83,5.62-7.52
		c1.79-12.27,3.78-33.18,7.14-44.29l37.86-0.14c6.62,0.02,4.74-0.61,7.9,15.98c1.64,8.63,3.41,17.26,4.97,25.88
		c1.67,9.24-0.89,7.07,17.18,14.52l88.13,37.54l-77.4-339.49l-112.42-0.07L406.48,671.63z M538.89,414.06
		c2.02,18.46,4.42,37.03,6.55,55.12c2.14,18.2,6.06,36.79,7.8,55.24l-29.25,0.24C525.11,514.36,538.48,414.82,538.89,414.06z"/>
	<path class="st5" d="M798.56,726.91l-71.54-299.17l-91.95-0.02c1.88,14.46,48.82,204.81,55.63,233.64
		c6.69,28.34,0.77,18.96,26.94,30.88C726.55,696.3,794.57,726.35,798.56,726.91"/>
	<path class="st6" d="M538.89,414.06c-0.41,0.76-13.78,100.3-14.91,110.6l29.25-0.24c-1.73-18.45-5.66-37.04-7.8-55.24
		C543.31,451.09,540.91,432.52,538.89,414.06"/>
	<path class="st7" d="M500.84,301.09H246.86c-0.68,8.14-11.96,43.52-14.94,54.17c-3.32,11.89-25.06,83.91-25.21,90.59h93.38
		c-0.07,3.15-0.95,6.36-1.47,9.73l-24.54,155.7c-2.3,13.8-3.91,27.31-6.27,41.36l-16.54,103c-1.03,6.16-2.01,14.54-3.47,20.81
		c5.53-0.46,16.5-6.62,22.1-9.65c3.05-1.65,3.77-2.55,7.23-3.98c10.66-4.4,19.66-9.46,29.5-14.39c2.35-1.18,4.15-2.18,6.94-3.33
		c4.04-1.67,3.95-1.96,7.37-3.83c13.03-7.13,30.61-14.43,44.51-21.79c-0.53,6.39-6.89,14.98-8.4,21.48
		c6.96,1.62,14.32,3.74,21.36,5.72c6.88,1.94,15.43,3.83,22.53,5.48c0,7.57,2.21,22.39,3.73,28.95h44.82c2.12,4,6.9,7.32,8.07,11.61
		c1.12,4.09-7.95,42.66-9.01,49.09c-5.89,35.72-18.68,98.13-26.88,130.94c-1.63,6.54-15.13,56.89-15.13,64.25
		c3.3-3.79,5.62-8.94,8.23-13.24l63.62-111.94c9.87-17.1,23.67-39.59,31.8-55.99c1.21-2.44,2.62-5.03,3.72-7.49
		c1.37-3.09,1.72-4.65,3.56-7.65c3.31-5.39,13.89-24.4,15.13-29.7c2.35,1.58,4.22,2.98,7.47,3.74c4.79-3.21,9.96-6.06,15.12-9.16
		c19.2-11.57,11.38-11.29,45.18-1.65c3.69,1.05,6.47,2.31,10.67,2.41c3.24-6.13,8.35-11.74,12.54-17.34
		c8.73-11.7,9.69-7.92,37.88-7.87c15.9,0.03,12.39,1.98,14.79-15.1c0.66-4.69,1.67-9.65,2.02-13.85l42.95-11.21
		c-1.31-5.64-5.17-10.73-5.6-15.88c4.74,2.51,10.3,4.39,15.56,6.85c5.62,2.62,10.87,4.84,16.33,7.01l31.92,13.83
		c7.94,3.86,59.2,27,64.11,27.41c-9.79-42.05-21.09-83.5-30.27-125.69l-48.09-200.34c-0.88-4.04-3.26-8.32,0.87-8.32h84.97
		c-0.09-4.07-1.11-5.37-1.95-9.25l-6.26-27.36c-3.11-12.33-5.83-23.46-8.78-36.05c-2.82-12.05-5.67-23.65-8.78-36.04
		c-2.58-10.26-4.49-27.13-8.77-36.06h-96.18c1.1-4.74,3.76-9.86,5.47-14.14l23.62-56.69c1.95-4.8,3.68-9.49,5.86-14.69
		c4.08-9.74,9.33-19.03,11.74-29.35c-4.03,0.34-37.91,12.77-42.02,14.94c1.02-4.37,3.44-8.46,5.3-12.45l17.11-37.05H566.2
		c-0.68,2.92-2.52,6.84-3.73,9.34l-20.4,46.84c-2.57,6.45-5.96,12.65-8.42,18.66c-2.58,6.3-4.96,12.1-7.92,18.23
		C516.81,263.17,510.36,283.09,500.84,301.09 M527.76,279.47c15.8-34.47,31.98-75.7,47.42-108.55c1.56-3.33,0.45-2.38,3.16-3.72
		l144.37,0.24l-27.89,61.1l44.14-15.49c-1.8,6.87-8.25,18.8-11.43,26.16c-4.69,10.86-33.5,72.27-34.42,77.51l111.24,0.18
		l26.73,113.64l-87.61,0.14l76.99,322.63c-7.01-1.8-53.87-23.28-65.62-28.22c-10.87-4.56-22.24-9.51-32.58-14.1
		c-23.55-10.45-22.94-12.99-32.52-5.41l9.92,24.85l-26.86,6.88c-11.38,2.92-8.97-0.06-12.46,28.04c-7.07,0.47-35.26-1.27-39.08,0.87
		c-1.01,0.57-15.61,20.2-16.76,22.15c-20.53-2.16-30.41-12.94-42.25-5.6c-30.42,18.86-20.68,13.58-35.27,6.75
		c-3.61,3.4-16.02,30.28-19.75,37.23c-3.26,6.09-6.3,12.27-9.48,18.53l-50.71,88.84c1.06-12.81,5.95-31.71,8.56-45.17l17.34-89.92
		c2.5-12.65,3.39-7.55-4.88-18.77c-3.4-4.61-7.62-10.6-11.18-14.76c-8.09,0-32.51,1-38.69-0.55c-0.57-4.55-1.18-8.75-1.83-13.24
		c-0.56-3.89-0.76-9.1-2.25-12.19l-35.01-8.88c0.86-7.56,7.75-17.42,9.5-25.2c-2.68-2.3-11.43-8.24-14.19-7.64
		c-4.27,0.92-93.44,47.2-106.1,51.67l50.15-318.96l-90.99-0.04c-0.16-9.26,27.61-93.84,31.48-113.78l252.31,0L527.76,279.47z"/>
	<path class="st8" d="M247.5,415.23l88.66,0.01l-48.11,307.21c4.77-1.07,31.26-14.57,37.39-17.74
		c11.67-6.04,23.91-11.97,36.28-17.97c18.94-9.19,13.87-0.46,19.28-34.98c2.51-16,4.93-31.16,7.51-47.48
		c5-31.56,10.05-62.85,14.86-94.13c4.69-30.54,8.88-64.3,15-94.55l31.11-0.41c2.65-0.7,2.2-2.35,3.6-8.84
		c3.12-14.44,16.18-68.16,16.03-74.3H271.02C268.73,336.72,248.19,409.18,247.5,415.23"/>
	<path class="st9" d="M676.82,227.94l-0.43-2.17l-107.96-0.36c-2.24,3.46-34.69,77.63-35.19,81.25l59.86-20.3l-5.41,31.18
		l91.44,0.08c1.94-3.64,30.74-71.76,32.17-78.32l-46.11,16.24C667.56,247.79,676.1,234.15,676.82,227.94"/>
	<path class="st10" d="M568.42,225.41l107.96,0.36l0.43,2.17c3.83-3.57,18.53-37.95,21.76-45.15l-111.75-0.21L568.42,225.41z"/>
	<polygon class="st11" points="528.54,750.76 497.89,750.92 479.85,846.44 	"/>
	<path class="st12" d="M630.14,702.16c3.1-1.03,7.47-3.67,9.06-6.95l-0.32-7.01l-8.63-0.25L630.14,702.16z"/>
	<path class="st6" d="M511.24,316.73l-252.31,0c-3.87,19.94-31.63,104.53-31.48,113.78l90.99,0.04l-50.15,318.96
		c12.67-4.48,101.83-50.75,106.1-51.67c2.77-0.6,11.51,5.34,14.19,7.64c-1.75,7.78-8.63,17.64-9.5,25.2l35.01,8.88
		c1.48,3.09,1.69,8.3,2.25,12.19c0.65,4.49,1.26,8.68,1.83,13.24c6.18,1.55,30.61,0.55,38.69,0.55c3.57,4.16,7.78,10.15,11.18,14.76
		c8.27,11.21,7.38,6.12,4.88,18.77l-17.34,89.92c-2.61,13.46-7.5,32.36-8.56,45.17l50.71-88.84c3.18-6.27,6.22-12.45,9.48-18.53
		c3.73-6.95,16.14-33.83,19.75-37.23c14.59,6.82,4.85,12.11,35.27-6.75c11.83-7.34,21.72,3.43,42.25,5.6
		c1.16-1.95,15.75-21.58,16.76-22.15c3.82-2.14,32-0.4,39.08-0.87c3.49-28.09,1.09-25.12,12.46-28.04l26.86-6.88l-9.92-24.85
		c9.57-7.58,8.97-5.05,32.52,5.41c10.33,4.59,21.71,9.54,32.58,14.1c11.75,4.94,58.61,26.41,65.62,28.22l-76.99-322.63l87.61-0.14
		l-26.73-113.64l-111.24-0.18c0.92-5.25,29.73-66.66,34.42-77.51c3.18-7.35,9.62-19.28,11.43-26.16l-44.14,15.49l27.89-61.1
		l-144.37-0.24c-2.71,1.34-1.59,0.39-3.16,3.72c-15.43,32.84-31.62,74.08-47.42,108.55L511.24,316.73z M676.82,227.94
		c-0.72,6.21-9.25,19.84-11.62,27.62l46.11-16.24c-1.44,6.56-30.23,74.68-32.17,78.32l-91.44-0.08l5.41-31.18l-59.86,20.3
		c0.5-3.63,32.95-77.79,35.19-81.25l18.41-42.83l111.75,0.21C695.34,189.99,680.65,224.37,676.82,227.94z M704.93,342.57
		c2.19,2.38,14.25,52.82,15.76,60.51l2.73,12.12l-91.72-0.26l-19.4-82.86l90.66,0.33C704.17,336.21,705.09,338.73,704.93,342.57z
		 M735.71,402.13L721,343.34l-2.47-11.25l73.68,0.04l19.58,83.07l-73.04-0.11L735.71,402.13z M247.5,415.23
		c0.69-6.05,21.23-78.51,23.52-83.16h198.09c0.15,6.13-12.91,59.86-16.03,74.3c-1.4,6.49-0.95,8.14-3.6,8.84l-31.11,0.41
		c-6.12,30.25-10.31,64.01-15,94.55c-4.81,31.28-9.85,62.57-14.86,94.13c-2.59,16.31-5.01,31.48-7.51,47.48
		c-5.41,34.52-0.35,25.79-19.28,34.98c-12.37,6-24.62,11.93-36.28,17.97c-6.14,3.18-32.62,16.67-37.39,17.74l48.11-307.21
		L247.5,415.23z M690.7,661.36c-6.8-28.83-53.75-219.18-55.63-233.64l91.95,0.02l71.54,299.17c-3.99-0.55-72.01-30.61-80.92-34.67
		C691.47,680.32,697.39,689.7,690.7,661.36z M482.53,332.22l112.42,0.07l77.4,339.49l-88.13-37.54
		c-18.07-7.44-15.51-5.28-17.18-14.52c-1.56-8.61-3.32-17.25-4.97-25.88c-3.16-16.59-1.29-15.96-7.9-15.98L516.3,578
		c-3.36,11.11-5.35,32.02-7.14,44.29c-0.83,5.68-0.51,5.42-5.62,7.52l-26.04,11.32c-6.53,2.79-65.75,29.43-71.03,30.51
		L482.53,332.22z M584.39,685.87c0-3.2-0.95-4.55-2.02-6.39l28.5-0.08v10.15c-3.41-0.95-1.89-1.68-6.38-1.68l-11.24,0.11l-0.11,11.3
		c5.66,0.23,8.66,0.64,13.71-0.82l0.06,10.16l-13.68-0.28l-0.1,6.61l3.88,0.13c11.53,0.2,7.99,0.45,13.86-1.92l-0.38,10.6
		l-27.87-0.19c0.68-3.04,1.76-0.91,1.76-5.97V685.87z M463.94,723.66c0.39-3.54,1.54-3.85,1.52-9.74c-0.04-10.06,1.22-28-1.92-34.74
		l28.53,0.46l0.01,9.69c-1.74-0.06-7.68-2.87-17.92-1.07l0.25,10.99c4.76,0.67,10.18,0.33,13.83-0.85l-0.3,10.86
		c-3.53-1.33-8.88-1.03-13.61-1.03l-0.13,6.88c3.4,0,7.54,0.22,10.85,0.04c5.64-0.31,3.7-1.29,7.04-1.78l-0.28,10.41L463.94,723.66z
		 M501.11,723.74c0-2.52,1.38-4.3,1.36-9.8c-0.04-10.21,1.17-28.27-1.9-34.72l10.87,0.02c1.95,4.66,9.6,20.9,12.62,23.48l0.08-23.45
		l10.68-0.08c-3.41,7.39-2.08,10.73-2.08,22.56c0,9.67-0.93,14.28,1.93,21.98l-10.5-0.44c-3.59-5.72-9.16-19.91-12.99-23.36
		l-0.53,23.8L501.11,723.74z M619.7,723.7c2.75-7.07,1.76-14.45,1.76-22.88c0-10.74,1.4-15.6-2.05-21.43
		c12.08-0.9,20.32-1.84,28.07,4.62c0.56,3.46,0.42,6.74,0.45,10.31c0.04,5.07,0.91,6.2-2.37,8.24c2.55,3.1,2.48-0.04,2.3,11.38
		c-0.12,7.63,0.75,5.33,1.81,9.83l-10.33-0.15l-0.34-14.39c-11.3-0.38-8.87,11.66-8.87,14.5L619.7,723.7z M428.69,682.78
		c6.52-3.26,3.21-3.65,13.33-3.64c7.82,0.01,8.07,0.91,12.96,3.97l-0.04,7.33c-3.22,1.86-4.57,3.66-8.44,5.1
		c-0.19-5.74,1.35-7.68-4.48-7.68c-4.66,0-4.69-0.18-4.69,4.55c-0.01,7.08-0.48,15.17,0.33,22.08c4.06,1.05,3.71,0.71,8.43,0.38
		l0.49-6.72l8.38,0.22l0.06,11.37c-4.9,3.27-4.88,4.08-13,4.08c-10.1,0-6.14-0.18-13.37-3.83L428.69,682.78z M573.79,689.71
		c-4.88-2.39-3.76-1.9-10.41-1.82l-0.38,28.88c0.24,5.24,0.91,3.83,1.67,6.96l-12.02,0.03c0.46-3.21,1.61-1.95,1.77-7.94
		l-0.38-27.91c-6.12-0.11-6.33,0.19-10.63,1.73l0.04-10.45h30.39L573.79,689.71z M479.85,846.44l18.04-95.51l30.65-0.16
		L479.85,846.44z"/>
</g>
</svg>
