<?xml version="1.0" encoding="utf-8"?>
<!-- Generator: Adobe Illustrator 25.3.1, SVG Export Plug-In . SVG Version: 6.00 Build 0)  -->
<svg version="1.1" xmlns="http://www.w3.org/2000/svg" xmlns:xlink="http://www.w3.org/1999/xlink" x="0px" y="0px"
	 viewBox="0 0 1080 1080" style="enable-background:new 0 0 1080 1080;" xml:space="preserve">
<style type="text/css">
	.st0{fill-rule:evenodd;clip-rule:evenodd;fill:#1D1D1B;}
	.st1{fill-rule:evenodd;clip-rule:evenodd;fill:#FFFFFF;}
	.st2{fill:none;stroke:#1D1D1B;stroke-width:0.5669;stroke-miterlimit:22.9256;}
	.st3{clip-path:url(#SVGID_2_);fill:url(#SVGID_3_);}
	.st4{fill-rule:evenodd;clip-rule:evenodd;fill:#E5391C;}
	.st5{fill-rule:evenodd;clip-rule:evenodd;fill:#050213;}
	.st6{fill-rule:evenodd;clip-rule:evenodd;fill:#080114;}
</style>
<g id="Capa_2">
</g>
<g id="Capa_1">
	<g>
		<path class="st1" d="M387.41,244.55l386.82-0.04c-0.02,5.15-20.85,55.55-24.28,65.42l41.39,19.64
			c8.12,4.31,35.12,16.23,40.12,20.57l-58.73,40.56c-7.84,5.17-5.76,8.78-6.72,18.18l-25.66,248.04c-0.08,0.2-0.23,0.52-0.39,0.76
			l-11.83,2.13l3.27,14.69L531.59,827.76l-65.02-49.81l-41.86,59.04l-0.81-0.53l18.02-79.02l-104.46-82.71l3.27-14.45l-12.3-3.56
			l-25.37-243.26c-0.37-4-0.89-14.01-1.79-17.24c-1.26-4.54-56.54-40.21-63.79-45.94l137.32-60.14L387.41,244.55z"/>
		<path class="st2" d="M387.41,244.55l386.82-0.04c-0.02,5.15-20.85,55.55-24.28,65.42l41.39,19.64
			c8.12,4.31,35.12,16.23,40.12,20.57l-58.73,40.56c-7.84,5.17-5.76,8.78-6.72,18.18l-25.66,248.04c-0.08,0.2-0.23,0.52-0.39,0.76
			l-11.83,2.13l3.27,14.69L531.59,827.76l-65.02-49.81l-41.86,59.04l-0.81-0.53l18.02-79.02l-104.46-82.71l3.27-14.45l-12.3-3.56
			l-25.37-243.26c-0.37-4-0.89-14.01-1.79-17.24c-1.26-4.54-56.54-40.21-63.79-45.94l137.32-60.14L387.41,244.55z"/>
		<g>
			<defs>
				<path id="SVGID_1_" d="M421.56,321.27l0.94,0.74l-4.08,17l78.78,0.16c3.4,0.83,0.85-0.81,1.94,2.53
					c0.18-0.3,0.46-1.05,0.54-0.89c0.07,0.15,0.38-0.64,0.47-0.87c0.09-0.22,0.67-2.13,0.73-2.44l154.11,0.13
					c-9.41,0.67-33.1-1-36.86,2.24l72.5-0.6l1.78-15.37l12.11,47.59c2.34-2.92,39.7-99.46,41.64-107.38l-343.63-0.03L375.3,369.33
					L421.56,321.27z M499.13,341.7l-44.94,179.38l-1.99,7.22l64.79-16.63l-15.78,71.2L465.9,743
					c-7,31.75,185.8-292.66,188.32-304.56l-4.31,1.01l-71.62,16.62l39.82-116.22c3.76-3.24,27.44-1.57,36.86-2.24l-154.11-0.13
					c-0.06,0.31-0.64,2.22-0.73,2.44c-0.09,0.23-0.39,1.03-0.47,0.87C499.59,340.65,499.31,341.4,499.13,341.7z"/>
			</defs>
			<clipPath id="SVGID_2_">
				<use xlink:href="#SVGID_1_"  style="overflow:visible;"/>
			</clipPath>
			<linearGradient id="SVGID_3_" gradientUnits="userSpaceOnUse" x1="560.7226" y1="264.0585" x2="560.7226" y2="745.1873">
				<stop  offset="0" style="stop-color:#F49900"/>
				<stop  offset="1" style="stop-color:#F5DD00"/>
			</linearGradient>
			<rect x="375.3" y="264.06" class="st3" width="370.85" height="510.69"/>
		</g>
		<path class="st4" d="M603.66,436.31l-3.25,0.56l-0.92-1.73l-1.09,2.71C601.82,437.69,601.25,437.9,603.66,436.31 M599.49,435.14
			l0.92,1.73l3.25-0.56l77.86-18.05c-3.97,9.55-111.2,180.57-120.15,195.22c-12.68,20.76-107.31,176.24-122.19,191.9
			c4.39-32.92,35.67-164.42,45.07-206.87c4.86-21.97,11.76-46.79,15.18-68.87l-61.78,15.42l-2.34-1.33l47.24-191.25
			c-4.98-0.6-69.47-1.16-72.78,0.34c-1.55,0.7-9.7,10.37-11.54,12.38c-15.46,16.93-31.52,32.98-47.05,49.78
			c0.15-7.47,7.48-32.26,9.64-41.34c9.41-39.51,23.39-84.97,31.19-122.72l373.5,0.09l-63,163.18c-1.3-1.5-0.94-1.03-1.7-3.63
			c-0.28-0.95-0.66-2.78-0.91-3.84c-0.61-2.57-1.26-5.15-1.89-7.72l-11.69-46.71l-58.38,0.21L599.49,435.14z M488.74,745.14
			c1.11-5.39,131.77-215.78,153.28-249.92c9.6-15.23,44.82-70.65,50.98-82.6l1.33-1.53l0.78,2.59l5.71,22.29
			c2.32-3.01,22.32-56.68,26.54-67.71c1.45-3.79,5.81-19.39,9.5-20.96c-1.35-3.17,4.07-15.03,6.04-18.25
			c6.22,0.83,47.12,20.19,49.92,24.46c-6.76,3.26-20.09,13.26-26.8,18.03c-19.89,14.13-16.7,7.97-18.58,26.13
			c-8.26,79.89-17.23,163.52-24.26,243.11l-19.25,3.79l5.23,23.04c-14.21,9.68-30.58,23.27-44.28,34.09
			c-14.59,11.53-29.68,22.54-44.22,34.15c-14.55,11.61-29.62,22.59-44.23,34.18c-7.26,5.77-38.66,30.96-45.06,33.6l-53.59-41.71
			L488.74,745.14z M237.47,350.28c7.25,5.73,62.53,41.39,63.79,45.94c0.9,3.23,1.42,13.24,1.79,17.24l25.37,243.26l12.3,3.56
			l-3.27,14.45l104.46,82.71l-18.02,79.02l0.81,0.53l41.86-59.04l65.02,49.81l199.83-153.25l-3.27-14.69l11.83-2.13
			c0.16-0.24,0.3-0.56,0.39-0.76l25.66-248.04c0.96-9.4-1.12-13.02,6.72-18.18l58.73-40.56c-5-4.35-32.01-16.27-40.12-20.57
			l-41.39-19.64c3.42-9.87,24.25-60.28,24.28-65.42l-386.82,0.04l-12.63,45.6L237.47,350.28z M275.79,352.58l93.67-39.72
			l-6.99,22.73l0.43,1.47c0.03,0.21,0.11,0.51,0.12,0.74l-19.96,79.15l-4.28,20.9l5.21-4.79l1.09,4.17
			c-0.5-8.74,4.57-10.56,10.18-16.52l49.81-53.48c7.55-8.42,5.72-8.42,17.52-8.34c17.17,0.12,34.37-0.17,51.73,0.09l-48.68,196.25
			l64.97-16.41L446.5,735.75c-3.98-1.71-82.52-64.07-87.11-68.95l5.03-21.91l-18.81-4.77l-25.89-256.75L275.79,352.58z
			 M632.53,359.28l47.26-0.41c3.49,2.1,6.16,19.06,7.42,24.11c2.04,8.19,4.89,17.53,6.2,25.54l-84.97,19.79L632.53,359.28z"/>
		<path class="st5" d="M435.31,543.73l0.02,1.67l2.32-0.35l61.78-15.42c-3.41,22.09-10.31,46.9-15.18,68.87
			c-9.39,42.45-40.68,173.95-45.07,206.87c14.87-15.66,109.51-171.14,122.19-191.9c8.95-14.66,116.18-185.67,120.15-195.22
			l-77.86,18.05l-5.27,1.54l1.09-2.71l28.46-82.61l58.38-0.21c1.64,6.54,13.91,59.25,16.19,61.89l63-163.18l-373.5-0.09
			c-7.8,37.74-21.78,83.2-31.19,122.72c-2.16,9.07-9.49,33.86-9.64,41.34c15.53-16.8,31.59-32.85,47.05-49.78
			c1.83-2.01,9.99-11.68,11.54-12.38c3.31-1.5,67.8-0.95,72.78-0.34L435.31,543.73z M617.97,339.86L578.3,456.08l75.92-17.63
			L465.9,743l51.08-231.34l-64.79,16.63l46.94-186.6c-1.09-3.34,1.47-1.7-1.94-2.53l-78.78-0.16l4.08-17l-0.94-0.74l-46.26,48.06
			l27.22-105.27l343.63,0.03c-1.94,7.92-39.3,104.47-41.64,107.38l-12.11-47.59l-1.78,15.37L617.97,339.86z"/>
		<path class="st5" d="M736.86,347.31l17.32,7.82c-2.55,3.92-18.91,13.29-23.72,17.16l-26.03,251.24l-24.62,5.37l6.62,31.64
			L532.55,779.01l-43.81-33.87l-10.98,16.78l53.59,41.71c6.4-2.63,37.8-27.83,45.06-33.6c14.6-11.59,29.67-22.56,44.23-34.18
			c14.54-11.61,29.63-22.62,44.22-34.15c13.69-10.82,30.07-24.41,44.28-34.09l-5.23-23.04l19.25-3.79
			c7.03-79.59,16-163.22,24.26-243.11c1.88-18.16-1.31-11.99,18.58-26.13c6.71-4.77,20.04-14.76,26.8-18.03
			c-2.8-4.28-43.69-23.63-49.92-24.46C740.93,332.28,735.51,344.13,736.86,347.31"/>
		<path class="st6" d="M275.79,352.58l43.93,30.8l25.89,256.75l18.81,4.77l-5.03,21.91c4.59,4.88,83.13,67.24,87.11,68.95
			l4.53-19.96c-3.81-1.92-67.23-53.79-69.35-56.59l7.3-30.17l-24.56-5.25c-1.92-3.14-18.43-169.36-19.34-186.54l-1.08-4.17
			l-5.21,4.79l4.28-20.9l-4.85-44.48l-23.78-17.77l48.04-19.11l6.99-22.73L275.79,352.58z"/>
	</g>
</g>
</svg>
